<svg xmlns="http://www.w3.org/2000/svg" width="416" height="416" fill="none" viewBox="0 0 416 416"><path fill="#2A2929" d="M207.81 0C93.04 0 0 93 0 207.81C0 322.62 93 415.62 207.81 415.62C322.62 415.62 415.61 322.62 415.61 207.81C415.61 93 322.53 0 207.81 0ZM184.91 384.24C177.91 384.24 178.06 375.24 177.08 369.93C176.1 364.62 171.94 358.56 166.69 359.17C161.44 359.78 162.69 365.17 163.51 370.67C164.33 376.17 165.09 382.9 159.84 382.9C154.59 382.9 150.99 378.74 150.68 369.81C150.38 361.81 147.99 361.25 143.46 361.25C140.11 361.25 134.99 365.83 132.46 370.18C132.048 371.017 131.47 371.761 130.762 372.368C130.054 372.974 129.23 373.431 128.34 373.71C127.815 373.867 127.263 373.911 126.72 373.84C125.592 373.63 124.519 373.19 123.569 372.546C122.62 371.903 121.813 371.07 121.2 370.1C120.285 368.454 119.934 366.554 120.2 364.69C121.05 356.62 136.95 341.34 155.65 341.34C174.35 341.34 192.7 351.73 192.7 371.78C192.68 371.81 191.81 384.24 184.86 384.24H184.91ZM219.16 351.98C218.99 352.21 218.8 352.43 218.62 352.66C214.936 357.542 211.713 362.754 208.99 368.23C208.78 367.68 208.56 367.13 208.34 366.6C207.99 367.09 207.81 367.37 207.81 367.37C202.9 354.77 196.56 346.95 189.91 342.06L189.76 341.97C178.7 334.34 166.83 333.97 159.16 333.49H158.41L157.25 333.4C156.656 333.367 156.078 333.196 155.561 332.903C155.044 332.609 154.602 332.2 154.269 331.707C153.936 331.215 153.721 330.652 153.641 330.062C153.562 329.473 153.62 328.873 153.81 328.31C174.71 268.33 137.81 220.16 137.81 220.16C153.46 280.48 140.26 318.22 140.26 318.22C140.26 318.22 121.43 287.43 117.52 241.93C114.55 207.81 126.65 196.81 126.65 196.81C134.649 202.146 143.799 205.509 153.35 206.622C162.901 207.734 172.579 206.565 181.59 203.21L206.59 233.11C207.273 233.929 208.129 234.586 209.098 235.032C210.066 235.478 211.122 235.703 212.188 235.689C213.255 235.676 214.304 235.425 215.261 234.954C216.218 234.484 217.058 233.806 217.72 232.97L241.33 203.14C247.742 205.607 254.55 206.885 261.42 206.91C262.67 206.99 263.94 207.03 265.22 207.03C275.965 207.067 286.519 204.192 295.76 198.71C298.93 203.1 305.6 215.71 303.34 241.98C299.42 287.48 281.34 319.17 281.34 319.17C281.34 319.17 269.6 282 285.25 221.68C285.25 221.68 249.48 269.38 268.38 328.86C268.56 329.414 268.612 330.002 268.533 330.579C268.454 331.156 268.246 331.708 267.924 332.194C267.602 332.679 267.174 333.085 266.673 333.383C266.172 333.68 265.61 333.86 265.03 333.91C256.84 334.57 242.77 330.82 228.14 342.65C226.488 343.991 224.922 345.434 223.45 346.97L223.31 347.12C222.14 348.39 220.92 349.83 219.69 351.32C219.48 351.51 219.3 351.75 219.11 351.98H219.16ZM219.4 148.21C220.29 123.9 239.93 104.32 264.45 103.21C265.21 103.21 265.97 103.16 266.75 103.16C275.741 103.146 284.553 105.673 292.17 110.45C298.886 114.635 304.429 120.458 308.277 127.372C312.126 134.287 314.153 142.067 314.17 149.98C314.17 175.84 292.96 196.81 266.78 196.81C241.16 196.81 220.29 176.71 219.43 151.6C219.43 151.06 219.43 150.51 219.43 149.98C219.43 149.45 219.37 148.81 219.35 148.21H219.4ZM232.4 198.88L213.71 224.03C213.553 224.242 213.35 224.415 213.117 224.538C212.883 224.66 212.625 224.728 212.362 224.737C212.098 224.745 211.836 224.694 211.595 224.588C211.354 224.481 211.141 224.321 210.97 224.12L189.56 199.51C193.749 197.196 197.644 194.386 201.16 191.14C204.645 187.929 207.719 184.298 210.31 180.33C216.454 187.819 223.93 194.108 232.36 198.88H232.4ZM159.43 196.81C153.223 196.901 147.06 195.757 141.3 193.444C135.539 191.132 130.296 187.697 125.875 183.34C121.453 178.983 117.943 173.79 115.546 168.064C113.15 162.338 111.916 156.192 111.916 149.985C111.916 143.778 113.15 137.632 115.546 131.906C117.943 126.18 121.453 120.987 125.875 116.63C130.296 112.273 135.539 108.838 141.3 106.526C147.06 104.213 153.223 103.069 159.43 103.16C160.19 103.16 160.95 103.16 161.7 103.21C173.891 103.827 185.359 109.18 193.661 118.128C201.964 127.076 206.444 138.913 206.148 151.115C205.852 163.318 200.804 174.924 192.077 183.459C183.351 191.994 171.637 196.785 159.43 196.81ZM294.96 369.81C294.366 370.865 293.547 371.777 292.562 372.482C291.578 373.187 290.45 373.668 289.26 373.89C288.626 373.975 287.982 373.906 287.38 373.69C285.704 373.058 284.327 371.819 283.52 370.22C280.99 365.87 275.86 361.29 272.52 361.29C267.99 361.29 265.59 361.86 265.3 369.85C264.99 378.78 261.39 382.94 256.13 382.93C250.87 382.92 251.6 376.21 252.47 370.7C253.34 365.19 254.54 359.83 249.29 359.21C244.04 358.59 239.87 364.72 238.89 369.97C237.91 375.22 238.04 384.28 231.06 384.28C224.08 384.28 223.24 371.81 223.24 371.81C223.24 351.76 241.58 341.36 260.29 341.37C279 341.38 294.89 356.65 295.75 364.72C295.995 366.457 295.72 368.229 294.96 369.81ZM308.3 361.81C304.587 352.844 297.672 345.58 288.9 341.43C288.415 341.193 287.982 340.862 287.627 340.456C287.271 340.05 286.999 339.578 286.827 339.066C286.655 338.555 286.586 338.014 286.624 337.476C286.662 336.937 286.807 336.412 287.05 335.93C295.95 318.26 330.37 239.99 304.8 192C310.765 186.703 315.57 180.229 318.912 172.986C322.254 165.742 324.061 157.886 324.22 149.91C324.52 135.22 320.28 121.85 311.15 112.55C311.15 112.55 333.49 96.33 323.87 71.47C323.87 71.47 307.08 87.77 283.06 90.22C261.94 92.38 258.46 92.01 248.12 94.27H248.06C231.84 98.93 219.89 110.57 213.7 125.45C210.058 118.146 204.931 111.683 198.648 106.474C192.364 101.265 185.063 97.4252 177.21 95.2H177.15C167.31 91.42 161.44 92.85 137.54 89.81C113.64 86.77 98.54 70.66 98.54 70.66C88.92 95.51 113.46 115.23 113.46 115.23C104.933 125.913 100.637 139.362 101.391 153.01C102.145 166.658 107.897 179.551 117.55 189.23C89.04 236.9 125.23 314.99 134.31 333.01C134.554 333.491 134.7 334.016 134.739 334.554C134.777 335.092 134.709 335.632 134.537 336.143C134.364 336.654 134.092 337.126 133.735 337.53C133.379 337.935 132.945 338.265 132.46 338.5C112.98 348.04 109.46 362.67 109.31 363.2C83.1045 346.618 61.5218 323.673 46.5721 296.503C31.6223 269.333 23.7919 238.821 23.81 207.81C23.81 106.24 106.18 23.89 207.81 23.89C309.44 23.89 391.68 106.24 391.68 207.81C391.697 238.391 384.08 268.492 369.52 295.384C354.96 322.276 333.917 345.108 308.3 361.81Z"/><path fill="#C8E629" d="M391.68 207.81C391.697 238.391 384.08 268.492 369.52 295.384C354.96 322.276 333.917 345.108 308.3 361.81C304.587 352.844 297.672 345.58 288.9 341.43C288.415 341.193 287.982 340.862 287.627 340.456C287.271 340.05 286.999 339.578 286.827 339.066C286.655 338.555 286.586 338.014 286.624 337.476C286.662 336.938 286.807 336.412 287.05 335.93C295.95 318.26 330.37 239.99 304.8 192C310.765 186.703 315.57 180.23 318.912 172.986C322.254 165.743 324.061 157.886 324.22 149.91C324.52 135.22 320.28 121.85 311.15 112.55C311.15 112.55 333.49 96.3301 323.87 71.4701C323.87 71.4701 307.08 87.7701 283.06 90.2201C261.94 92.3801 258.46 92.0101 248.12 94.2701H248.06C231.84 98.9301 219.89 110.57 213.7 125.45C210.058 118.146 204.931 111.683 198.648 106.474C192.364 101.265 185.063 97.4253 177.21 95.2001H177.15C167.31 91.4202 161.44 92.8501 137.54 89.8101C113.64 86.7701 98.54 70.6601 98.54 70.6601C88.92 95.5101 113.46 115.23 113.46 115.23C104.933 125.913 100.637 139.362 101.391 153.01C102.145 166.659 107.897 179.552 117.55 189.23C89.04 236.9 125.23 314.99 134.31 333.01C134.554 333.491 134.7 334.016 134.739 334.554C134.777 335.092 134.709 335.632 134.537 336.143C134.364 336.654 134.092 337.126 133.736 337.531C133.379 337.935 132.945 338.265 132.46 338.5C112.98 348.04 109.46 362.67 109.31 363.2C83.1045 346.618 61.5218 323.673 46.5721 296.503C31.6224 269.333 23.7919 238.821 23.81 207.81C23.81 106.24 106.18 23.8901 207.81 23.8901C309.44 23.8901 391.68 106.24 391.68 207.81Z"/><path fill="#83CED1" d="M303.33 241.93C299.41 287.43 281.33 319.12 281.33 319.12C281.33 319.12 269.59 281.95 285.24 221.63C285.24 221.63 249.47 269.33 268.37 328.81C268.55 329.364 268.602 329.952 268.523 330.529C268.444 331.106 268.236 331.658 267.914 332.144C267.592 332.629 267.164 333.036 266.663 333.333C266.162 333.63 265.6 333.81 265.02 333.86C256.83 334.52 242.76 330.77 228.13 342.6C226.478 343.941 224.912 345.384 223.44 346.92L223.3 347.07C222.1 348.34 220.88 349.74 219.68 351.27C219.49 351.51 219.31 351.75 219.12 351.98C218.93 352.21 218.76 352.43 218.58 352.66C214.07 358.31 209.75 364.48 208.3 366.6C207.95 367.09 207.77 367.37 207.77 367.37C202.86 354.77 196.52 346.95 189.87 342.06L189.72 341.97C178.72 333.97 166.92 333.97 159.12 333.49H158.37L157.21 333.4C156.62 333.361 156.046 333.186 155.534 332.89C155.022 332.594 154.585 332.185 154.256 331.693C153.928 331.201 153.716 330.64 153.639 330.053C153.562 329.467 153.62 328.87 153.81 328.31C174.71 268.33 137.81 220.16 137.81 220.16C153.46 280.48 140.26 318.22 140.26 318.22C140.26 318.22 121.43 287.43 117.52 241.93C114.55 207.81 126.65 196.81 126.65 196.81C134.649 202.147 143.799 205.509 153.35 206.622C162.901 207.734 172.579 206.565 181.59 203.21L206.59 233.11C207.273 233.929 208.129 234.586 209.098 235.032C210.066 235.478 211.122 235.703 212.188 235.689C213.255 235.676 214.304 235.425 215.261 234.954C216.218 234.484 217.058 233.806 217.72 232.97L241.33 203.14C247.742 205.607 254.55 206.885 261.42 206.91C262.67 206.99 263.94 207.03 265.22 207.03C275.965 207.067 286.519 204.192 295.76 198.71C298.92 203.05 305.59 215.64 303.33 241.93Z"/><path fill="#83CED1" d="M232.36 198.88L213.67 224.03C213.513 224.242 213.31 224.415 213.077 224.538C212.843 224.66 212.585 224.728 212.322 224.737C212.058 224.745 211.796 224.694 211.555 224.588C211.314 224.481 211.101 224.321 210.93 224.12L189.56 199.51C193.749 197.196 197.644 194.386 201.16 191.14C204.645 187.929 207.719 184.298 210.31 180.33C216.454 187.819 223.93 194.108 232.36 198.88Z"/><path fill="#fff" d="M292.12 110.4C284.503 105.623 275.691 103.096 266.7 103.11C265.92 103.11 265.16 103.11 264.4 103.16C239.88 104.32 220.24 123.9 219.35 148.16C219.35 148.73 219.35 149.3 219.35 149.88C219.35 150.46 219.35 150.96 219.35 151.5C220.21 176.61 241.08 196.71 266.7 196.71C292.88 196.71 314.09 175.71 314.09 149.88C314.068 141.978 312.041 134.21 308.199 127.305C304.356 120.4 298.824 114.584 292.12 110.4ZM265.81 181.53C260.288 181.459 254.91 179.757 250.353 176.637C245.796 173.518 242.264 169.12 240.199 163.998C238.135 158.876 237.632 153.258 238.753 147.85C239.873 142.443 242.568 137.487 246.498 133.607C250.428 129.727 255.417 127.096 260.839 126.045C266.26 124.993 271.871 125.568 276.967 127.698C282.062 129.827 286.414 133.416 289.475 138.012C292.536 142.608 294.17 148.007 294.17 153.53C294.12 161.003 291.104 168.15 285.786 173.401C280.468 178.651 273.283 181.575 265.81 181.53Z"/><path fill="#2A2929" d="M265.81 125.53C260.288 125.601 254.91 127.303 250.353 130.423C245.796 133.542 242.264 137.94 240.199 143.062C238.135 148.184 237.632 153.802 238.753 159.21C239.873 164.617 242.568 169.573 246.498 173.453C250.428 177.333 255.417 179.964 260.838 181.015C266.26 182.067 271.871 181.492 276.967 179.362C282.062 177.233 286.414 173.644 289.475 169.048C292.536 164.452 294.17 159.053 294.17 153.53C294.12 146.057 291.104 138.91 285.786 133.659C280.468 128.409 273.283 125.485 265.81 125.53ZM264.1 165.63C261.845 165.63 259.641 164.961 257.766 163.709C255.892 162.456 254.431 160.676 253.568 158.593C252.705 156.51 252.479 154.217 252.919 152.006C253.359 149.795 254.445 147.763 256.039 146.169C257.633 144.575 259.665 143.489 261.876 143.049C264.087 142.609 266.379 142.835 268.463 143.698C270.546 144.561 272.326 146.022 273.579 147.897C274.831 149.771 275.5 151.975 275.5 154.23C275.5 155.73 275.204 157.215 274.629 158.6C274.055 159.985 273.212 161.243 272.15 162.302C271.089 163.361 269.828 164.2 268.442 164.771C267.055 165.342 265.57 165.634 264.07 165.63H264.1Z"/><path fill="#fff" d="M161.7 103.16C160.95 103.16 160.19 103.11 159.43 103.11C147.14 103.138 135.356 108.009 126.633 116.666C117.91 125.323 112.95 137.07 112.829 149.359C112.708 161.648 117.435 173.49 125.985 182.318C134.536 191.146 146.221 196.248 158.508 196.519C170.795 196.789 182.694 192.207 191.625 183.764C200.556 175.321 205.799 163.699 206.219 151.416C206.639 139.133 202.202 127.18 193.868 118.147C185.535 109.114 173.977 103.729 161.7 103.16ZM159.81 181.53C154.288 181.457 148.912 179.753 144.356 176.632C139.801 173.512 136.269 169.114 134.207 163.991C132.144 158.869 131.642 153.251 132.764 147.844C133.886 142.437 136.581 137.483 140.511 133.604C144.442 129.725 149.431 127.095 154.852 126.044C160.273 124.993 165.884 125.569 170.979 127.699C176.074 129.828 180.425 133.417 183.486 138.013C186.546 142.61 188.18 148.008 188.18 153.53C188.156 157.232 187.404 160.892 185.965 164.303C184.527 167.713 182.43 170.807 179.796 173.407C177.161 176.008 174.04 178.063 170.611 179.457C167.182 180.851 163.512 181.555 159.81 181.53Z"/><path fill="#2A2929" d="M159.81 125.53C154.288 125.603 148.912 127.307 144.356 130.428C139.8 133.548 136.269 137.946 134.207 143.069C132.144 148.191 131.642 153.809 132.764 159.216C133.886 164.623 136.581 169.577 140.511 173.456C144.442 177.335 149.431 179.965 154.852 181.016C160.273 182.067 165.884 181.491 170.979 179.361C176.074 177.232 180.425 173.643 183.486 169.047C186.546 164.451 188.18 159.052 188.18 153.53C188.156 149.828 187.404 146.168 185.965 142.757C184.527 139.347 182.43 136.253 179.796 133.653C177.161 131.052 174.04 128.997 170.611 127.603C167.182 126.209 163.512 125.505 159.81 125.53ZM161.46 165.63C159.205 165.63 157.001 164.961 155.126 163.709C153.252 162.456 151.791 160.676 150.928 158.593C150.065 156.509 149.839 154.217 150.279 152.006C150.719 149.795 151.805 147.763 153.399 146.169C154.993 144.575 157.025 143.489 159.236 143.049C161.447 142.609 163.74 142.835 165.823 143.698C167.906 144.561 169.686 146.022 170.939 147.896C172.191 149.771 172.86 151.975 172.86 154.23C172.86 155.729 172.564 157.213 171.99 158.597C171.416 159.982 170.575 161.239 169.514 162.298C168.453 163.357 167.194 164.196 165.809 164.768C164.423 165.34 162.939 165.633 161.44 165.63H161.46Z"/><path fill="#83CED1" d="M192.68 371.81C192.68 371.81 191.82 384.28 184.86 384.28C177.9 384.28 178.01 375.28 177.03 369.97C176.05 364.66 171.89 358.6 166.64 359.21C161.39 359.82 162.64 365.21 163.46 370.71C164.28 376.21 165.04 382.94 159.79 382.94C154.54 382.94 150.94 378.78 150.63 369.85C150.33 361.85 147.94 361.29 143.41 361.29C140.06 361.29 134.94 365.87 132.41 370.22C131.998 371.057 131.42 371.801 130.712 372.408C130.004 373.014 129.18 373.471 128.29 373.75C127.765 373.907 127.213 373.951 126.67 373.88C125.542 373.671 124.469 373.23 123.519 372.586C122.57 371.943 121.763 371.11 121.15 370.14C120.235 368.494 119.884 366.594 120.15 364.73C121 356.66 136.9 341.38 155.6 341.38C174.3 341.38 192.68 351.72 192.68 371.81Z"/><path fill="#83CED1" d="M294.96 369.81C294.366 370.865 293.547 371.777 292.562 372.482C291.578 373.187 290.45 373.668 289.26 373.89C288.626 373.975 287.982 373.906 287.38 373.69C285.704 373.058 284.327 371.819 283.52 370.22C280.99 365.87 275.86 361.29 272.52 361.29C267.99 361.29 265.59 361.86 265.3 369.85C264.99 378.78 261.39 382.94 256.13 382.93C250.87 382.92 251.6 376.21 252.47 370.7C253.34 365.19 254.54 359.83 249.29 359.21C244.04 358.59 239.87 364.72 238.89 369.97C237.91 375.22 238.04 384.28 231.06 384.28C224.08 384.28 223.24 371.81 223.24 371.81C223.24 351.76 241.58 341.36 260.29 341.37C279 341.38 294.89 356.65 295.75 364.72C295.995 366.458 295.72 368.229 294.96 369.81Z"/><path fill="#83CED1" d="M172.81 154.23C172.806 156.485 172.133 158.689 170.877 160.561C169.621 162.434 167.837 163.892 165.752 164.751C163.667 165.61 161.374 165.831 159.163 165.386C156.952 164.942 154.922 163.851 153.331 162.253C151.74 160.655 150.659 158.621 150.224 156.408C149.789 154.196 150.02 151.903 150.888 149.822C151.756 147.741 153.222 145.964 155.1 144.715C156.979 143.467 159.185 142.804 161.44 142.81C162.937 142.813 164.418 143.11 165.8 143.686C167.181 144.261 168.436 145.103 169.492 146.164C170.548 147.224 171.384 148.483 171.954 149.867C172.523 151.251 172.814 152.734 172.81 154.23Z"/><path fill="#83CED1" d="M275.47 154.23C275.468 156.487 274.797 158.692 273.542 160.567C272.286 162.443 270.503 163.904 268.417 164.765C266.332 165.627 264.037 165.851 261.824 165.409C259.611 164.967 257.579 163.878 255.985 162.281C254.391 160.684 253.306 158.65 252.867 156.436C252.429 154.223 252.657 151.929 253.522 149.844C254.388 147.76 255.852 145.98 257.729 144.727C259.607 143.475 261.813 142.808 264.07 142.81C265.569 142.81 267.053 143.106 268.437 143.68C269.822 144.254 271.079 145.095 272.138 146.156C273.197 147.217 274.036 148.476 274.608 149.861C275.18 151.247 275.473 152.731 275.47 154.23Z"/></svg>